<svg width="160" height="40" viewBox="0 0 160 40" fill="none" xmlns="http://www.w3.org/2000/svg">
<path d="M3.168 31C2.95467 31 2.76267 30.9253 2.592 30.776C2.44267 30.6267 2.368 30.4347 2.368 30.2V9.4C2.368 9.16533 2.44267 8.97333 2.592 8.824C2.76267 8.67467 2.95467 8.6 3.168 8.6H6.144C6.464 8.6 6.69867 8.68533 6.848 8.856C7.01867 9.02667 7.136 9.15467 7.2 9.24L13.088 20.088L19.04 9.24C19.0827 9.15467 19.1787 9.02667 19.328 8.856C19.4987 8.68533 19.744 8.6 20.064 8.6H23.04C23.2747 8.6 23.4667 8.67467 23.616 8.824C23.7653 8.97333 23.84 9.16533 23.84 9.4V30.2C23.84 30.4347 23.7653 30.6267 23.616 30.776C23.4667 30.9253 23.2747 31 23.04 31H19.776C19.5627 31 19.3813 30.9253 19.232 30.776C19.0827 30.6267 19.008 30.4347 19.008 30.2V17.272L14.944 24.888C14.8373 25.08 14.6987 25.2507 14.528 25.4C14.3573 25.5493 14.1333 25.624 13.856 25.624H12.352C12.0747 25.624 11.8507 25.5493 11.68 25.4C11.5093 25.2507 11.3707 25.08 11.264 24.888L7.2 17.272V30.2C7.2 30.4347 7.12533 30.6267 6.976 30.776C6.82667 30.9253 6.64533 31 6.432 31H3.168ZM33.1308 31.32C32.0001 31.32 30.9868 31.1067 30.0908 30.68C29.1948 30.232 28.4801 29.6347 27.9468 28.888C27.4134 28.1413 27.1468 27.3093 27.1468 26.392C27.1468 24.8773 27.7548 23.6827 28.9708 22.808C30.2081 21.9333 31.8294 21.336 33.8348 21.016L38.0268 20.408V19.832C38.0268 19 37.8348 18.36 37.4508 17.912C37.0668 17.464 36.3948 17.24 35.4348 17.24C34.7308 17.24 34.1654 17.3787 33.7388 17.656C33.3121 17.9333 32.9814 18.296 32.7468 18.744C32.5761 19.0213 32.3308 19.16 32.0108 19.16H28.9708C28.7361 19.16 28.5548 19.096 28.4268 18.968C28.2988 18.8187 28.2454 18.648 28.2668 18.456C28.2668 18.0933 28.4054 17.6667 28.6828 17.176C28.9601 16.6853 29.3868 16.2053 29.9628 15.736C30.5388 15.2453 31.2748 14.84 32.1708 14.52C33.0668 14.2 34.1654 14.04 35.4668 14.04C36.8108 14.04 37.9628 14.2 38.9228 14.52C39.8828 14.84 40.6508 15.288 41.2268 15.864C41.8028 16.44 42.2294 17.112 42.5068 17.88C42.7841 18.6267 42.9228 19.4373 42.9228 20.312V30.2C42.9228 30.4347 42.8481 30.6267 42.6988 30.776C42.5494 30.9253 42.3574 31 42.1228 31H38.9868C38.7734 31 38.5921 30.9253 38.4428 30.776C38.2934 30.6267 38.2188 30.4347 38.2188 30.2V29.016C37.9414 29.4213 37.5681 29.8053 37.0988 30.168C36.6294 30.5093 36.0641 30.7867 35.4028 31C34.7627 31.2133 34.0054 31.32 33.1308 31.32ZM34.4108 27.992C35.1148 27.992 35.7441 27.8427 36.2988 27.544C36.8534 27.2453 37.2908 26.7867 37.6108 26.168C37.9308 25.5493 38.0908 24.7707 38.0908 23.832V23.288L35.1148 23.768C33.9628 23.96 33.1201 24.248 32.5868 24.632C32.0534 25.016 31.7868 25.4853 31.7868 26.04C31.7868 26.4453 31.9041 26.7973 32.1388 27.096C32.3948 27.3947 32.7254 27.6187 33.1308 27.768C33.5361 27.9173 33.9628 27.992 34.4108 27.992ZM47.5973 31C47.3626 31 47.1706 30.9253 47.0213 30.776C46.8719 30.6267 46.7973 30.4347 46.7973 30.2V9.08C46.7973 8.84533 46.8719 8.65333 47.0213 8.504C47.1706 8.35467 47.3626 8.28 47.5973 8.28H50.7973C51.0106 8.28 51.1919 8.35467 51.3413 8.504C51.4906 8.65333 51.5653 8.84533 51.5653 9.08V30.2C51.5653 30.4347 51.4906 30.6267 51.3413 30.776C51.1919 30.9253 51.0106 31 50.7973 31H47.5973ZM56.4098 31C56.1751 31 55.9831 30.9253 55.8338 30.776C55.6844 30.6267 55.6098 30.4347 55.6098 30.2V9.08C55.6098 8.84533 55.6844 8.65333 55.8338 8.504C55.9831 8.35467 56.1751 8.28 56.4098 8.28H59.6098C59.8231 8.28 60.0044 8.35467 60.1538 8.504C60.3031 8.65333 60.3778 8.84533 60.3778 9.08V30.2C60.3778 30.4347 60.3031 30.6267 60.1538 30.776C60.0044 30.9253 59.8231 31 59.6098 31H56.4098ZM72.0383 31.32C70.2676 31.32 68.7849 31.032 67.5903 30.456C66.3956 29.8587 65.4783 29.016 64.8383 27.928C64.2196 26.84 63.8783 25.5707 63.8143 24.12C63.7929 23.6933 63.7823 23.2133 63.7823 22.68C63.7823 22.1253 63.7929 21.6453 63.8143 21.24C63.8783 19.768 64.2409 18.4987 64.9023 17.432C65.5636 16.344 66.4916 15.512 67.6863 14.936C68.8809 14.3387 70.3316 14.04 72.0383 14.04C73.7236 14.04 75.1636 14.3387 76.3583 14.936C77.5529 15.512 78.4809 16.344 79.1423 17.432C79.8036 18.4987 80.1663 19.768 80.2303 21.24C80.2729 21.6453 80.2943 22.1253 80.2943 22.68C80.2943 23.2133 80.2729 23.6933 80.2303 24.12C80.1663 25.5707 79.8143 26.84 79.1743 27.928C78.5556 29.016 77.6489 29.8587 76.4543 30.456C75.2596 31.032 73.7876 31.32 72.0383 31.32ZM72.0383 27.8C73.0836 27.8 73.8729 27.48 74.4063 26.84C74.9396 26.1787 75.2276 25.2187 75.2703 23.96C75.2916 23.64 75.3023 23.2133 75.3023 22.68C75.3023 22.1467 75.2916 21.72 75.2703 21.4C75.2276 20.1627 74.9396 19.2133 74.4063 18.552C73.8729 17.8907 73.0836 17.56 72.0383 17.56C70.9929 17.56 70.1929 17.8907 69.6383 18.552C69.1049 19.2133 68.8169 20.1627 68.7743 21.4C68.7529 21.72 68.7423 22.1467 68.7423 22.68C68.7423 23.2133 68.7529 23.64 68.7743 23.96C68.8169 25.2187 69.1049 26.1787 69.6383 26.84C70.1929 27.48 70.9929 27.8 72.0383 27.8ZM84.409 31C84.1957 31 84.0143 30.9253 83.865 30.776C83.7157 30.6267 83.641 30.4347 83.641 30.2V15.16C83.641 14.9467 83.7157 14.7653 83.865 14.616C84.0143 14.4453 84.1957 14.36 84.409 14.36H87.545C87.7583 14.36 87.9397 14.4453 88.089 14.616C88.2597 14.7653 88.345 14.9467 88.345 15.16V16.44C88.8783 15.7787 89.529 15.2667 90.297 14.904C91.0863 14.5413 91.993 14.36 93.017 14.36H94.393C94.6063 14.36 94.7877 14.4347 94.937 14.584C95.0863 14.7333 95.161 14.9253 95.161 15.16V17.912C95.161 18.1467 95.0863 18.3387 94.937 18.488C94.7877 18.6373 94.6063 18.712 94.393 18.712H91.577C90.6383 18.712 89.9023 18.9787 89.369 19.512C88.8357 20.024 88.569 20.76 88.569 21.72V30.2C88.569 30.4347 88.4943 30.6267 88.345 30.776C88.1957 30.9253 88.0037 31 87.769 31H84.409ZM104.752 31.32C103.194 31.32 101.818 31.032 100.624 30.456C99.4504 29.88 98.5224 29.048 97.8398 27.96C97.1571 26.8507 96.7838 25.528 96.7198 23.992C96.6984 23.6507 96.6878 23.224 96.6878 22.712C96.6878 22.1787 96.6984 21.7413 96.7198 21.4C96.7838 19.8427 97.1464 18.52 97.8078 17.432C98.4904 16.3227 99.4291 15.48 100.624 14.904C101.818 14.328 103.194 14.04 104.752 14.04C106.181 14.04 107.397 14.2427 108.4 14.648C109.402 15.032 110.224 15.5227 110.864 16.12C111.504 16.7173 111.973 17.3467 112.272 18.008C112.592 18.648 112.762 19.2133 112.784 19.704C112.805 19.9173 112.73 20.1093 112.56 20.28C112.41 20.4293 112.229 20.504 112.016 20.504H108.592C108.378 20.504 108.208 20.4507 108.08 20.344C107.973 20.216 107.866 20.0453 107.76 19.832C107.461 19.0853 107.077 18.552 106.608 18.232C106.138 17.912 105.552 17.752 104.848 17.752C103.888 17.752 103.13 18.0613 102.576 18.68C102.021 19.2987 101.722 20.2587 101.68 21.56C101.658 22.392 101.658 23.1493 101.68 23.832C101.744 25.1547 102.042 26.1147 102.576 26.712C103.13 27.3093 103.888 27.608 104.848 27.608C105.594 27.608 106.192 27.448 106.64 27.128C107.088 26.808 107.461 26.2747 107.76 25.528C107.845 25.3147 107.952 25.1547 108.08 25.048C108.208 24.92 108.378 24.856 108.592 24.856H112.016C112.229 24.856 112.41 24.9413 112.56 25.112C112.73 25.2613 112.805 25.4427 112.784 25.656C112.762 26.0187 112.656 26.4453 112.464 26.936C112.293 27.4267 112.005 27.928 111.6 28.44C111.216 28.952 110.714 29.432 110.096 29.88C109.477 30.3067 108.72 30.6587 107.824 30.936C106.949 31.192 105.925 31.32 104.752 31.32ZM120.818 31.32C119.688 31.32 118.674 31.1067 117.778 30.68C116.882 30.232 116.168 29.6347 115.634 28.888C115.101 28.1413 114.834 27.3093 114.834 26.392C114.834 24.8773 115.442 23.6827 116.658 22.808C117.896 21.9333 119.517 21.336 121.522 21.016L125.714 20.408V19.832C125.714 19 125.522 18.36 125.138 17.912C124.754 17.464 124.082 17.24 123.122 17.24C122.418 17.24 121.853 17.3787 121.426 17.656C121 17.9333 120.669 18.296 120.434 18.744C120.264 19.0213 120.018 19.16 119.698 19.16H116.658C116.424 19.16 116.242 19.096 116.114 18.968C115.986 18.8187 115.933 18.648 115.954 18.456C115.954 18.0933 116.093 17.6667 116.37 17.176C116.648 16.6853 117.074 16.2053 117.65 15.736C118.226 15.2453 118.962 14.84 119.858 14.52C120.754 14.2 121.853 14.04 123.154 14.04C124.498 14.04 125.65 14.2 126.61 14.52C127.57 14.84 128.338 15.288 128.914 15.864C129.49 16.44 129.917 17.112 130.194 17.88C130.472 18.6267 130.61 19.4373 130.61 20.312V30.2C130.61 30.4347 130.536 30.6267 130.386 30.776C130.237 30.9253 130.045 31 129.81 31H126.674C126.461 31 126.28 30.9253 126.13 30.776C125.981 30.6267 125.906 30.4347 125.906 30.2V29.016C125.629 29.4213 125.256 29.8053 124.786 30.168C124.317 30.5093 123.752 30.7867 123.09 31C122.45 31.2133 121.693 31.32 120.818 31.32ZM122.098 27.992C122.802 27.992 123.432 27.8427 123.986 27.544C124.541 27.2453 124.978 26.7867 125.298 26.168C125.618 25.5493 125.778 24.7707 125.778 23.832V23.288L122.802 23.768C121.65 23.96 120.808 24.248 120.274 24.632C119.741 25.016 119.474 25.4853 119.474 26.04C119.474 26.4453 119.592 26.7973 119.826 27.096C120.082 27.3947 120.413 27.6187 120.818 27.768C121.224 27.9173 121.65 27.992 122.098 27.992Z" fill="white"/>
<path d="M135.08 31C134.947 31 134.84 30.96 134.76 30.88C134.68 30.8 134.64 30.6933 134.64 30.56V17.24C134.64 17.1067 134.68 17 134.76 16.92C134.84 16.84 134.947 16.8 135.08 16.8H135.42C135.553 16.8 135.66 16.84 135.74 16.92C135.82 17 135.86 17.1067 135.86 17.24V30.56C135.86 30.6933 135.82 30.8 135.74 30.88C135.66 30.96 135.553 31 135.42 31H135.08ZM139.552 31C139.419 31 139.312 30.96 139.232 30.88C139.152 30.8 139.112 30.6933 139.112 30.56V21.04C139.112 20.9067 139.152 20.8 139.232 20.72C139.312 20.64 139.419 20.6 139.552 20.6H139.892C140.026 20.6 140.132 20.64 140.212 20.72C140.292 20.8 140.332 20.9067 140.332 21.04V30.56C140.332 30.6933 140.292 30.8 140.212 30.88C140.132 30.96 140.026 31 139.892 31H139.552ZM139.332 18.46C139.199 18.46 139.092 18.42 139.012 18.34C138.932 18.26 138.892 18.1533 138.892 18.02V17.26C138.892 17.1267 138.932 17.02 139.012 16.94C139.092 16.8467 139.199 16.8 139.332 16.8H140.092C140.226 16.8 140.332 16.8467 140.412 16.94C140.506 17.02 140.552 17.1267 140.552 17.26V18.02C140.552 18.1533 140.506 18.26 140.412 18.34C140.332 18.42 140.226 18.46 140.092 18.46H139.332ZM144.985 31C144.852 31 144.745 30.96 144.665 30.88C144.585 30.8 144.545 30.6933 144.545 30.56V21.76H142.765C142.632 21.76 142.525 21.72 142.445 21.64C142.365 21.56 142.325 21.4533 142.325 21.32V21.04C142.325 20.9067 142.365 20.8 142.445 20.72C142.525 20.64 142.632 20.6 142.765 20.6H144.545V19.46C144.545 18.86 144.625 18.3133 144.785 17.82C144.959 17.3267 145.259 16.9333 145.685 16.64C146.125 16.3467 146.752 16.2 147.565 16.2H148.605C148.739 16.2 148.845 16.24 148.925 16.32C149.005 16.4 149.045 16.5067 149.045 16.64V16.92C149.045 17.0533 149.005 17.16 148.925 17.24C148.845 17.32 148.739 17.36 148.605 17.36H147.565C146.859 17.36 146.379 17.5533 146.125 17.94C145.885 18.3133 145.765 18.8533 145.765 19.56V20.6H148.405C148.539 20.6 148.645 20.64 148.725 20.72C148.805 20.8 148.845 20.9067 148.845 21.04V21.32C148.845 21.4533 148.805 21.56 148.725 21.64C148.645 21.72 148.539 21.76 148.405 21.76H145.765V30.56C145.765 30.6933 145.725 30.8 145.645 30.88C145.565 30.96 145.459 31 145.325 31H144.985ZM154.418 31.2C153.124 31.2 152.098 30.78 151.338 29.94C150.578 29.0867 150.144 27.9733 150.038 26.6C150.024 26.4 150.018 26.1333 150.018 25.8C150.018 25.4667 150.024 25.2 150.038 25C150.104 24.0933 150.318 23.2933 150.678 22.6C151.038 21.9067 151.531 21.3667 152.158 20.98C152.798 20.5933 153.551 20.4 154.418 20.4C155.351 20.4 156.144 20.6067 156.798 21.02C157.451 21.4333 157.951 22.0267 158.298 22.8C158.658 23.5733 158.838 24.4933 158.838 25.56V25.86C158.838 25.9933 158.791 26.1 158.698 26.18C158.618 26.26 158.511 26.3 158.378 26.3H151.258C151.258 26.3 151.258 26.3267 151.258 26.38C151.258 26.4333 151.258 26.4733 151.258 26.5C151.284 27.1 151.424 27.6733 151.678 28.22C151.931 28.7533 152.291 29.1933 152.758 29.54C153.224 29.8733 153.778 30.04 154.418 30.04C154.991 30.04 155.464 29.9533 155.838 29.78C156.224 29.6067 156.531 29.42 156.758 29.22C156.984 29.0067 157.131 28.8467 157.198 28.74C157.318 28.5667 157.411 28.4667 157.478 28.44C157.544 28.4 157.651 28.38 157.798 28.38H158.118C158.238 28.38 158.338 28.42 158.418 28.5C158.511 28.5667 158.551 28.66 158.538 28.78C158.524 28.9667 158.418 29.2 158.218 29.48C158.031 29.7467 157.758 30.0133 157.398 30.28C157.051 30.5467 156.624 30.7667 156.118 30.94C155.611 31.1133 155.044 31.2 154.418 31.2ZM151.258 25.18H157.618V25.1C157.618 24.4333 157.491 23.8333 157.238 23.3C156.984 22.7667 156.618 22.3467 156.138 22.04C155.658 21.72 155.084 21.56 154.418 21.56C153.751 21.56 153.178 21.72 152.698 22.04C152.231 22.3467 151.871 22.7667 151.618 23.3C151.378 23.8333 151.258 24.4333 151.258 25.1V25.18Z" fill="white" fill-opacity="0.8"/>
</svg>
